<?xml version="1.0" standalone="no"?>
<!DOCTYPE svg PUBLIC "-//W3C//DTD SVG 20010904//EN"
 "http://www.w3.org/TR/2001/REC-SVG-20010904/DTD/svg10.dtd">
<svg version="1.0" xmlns="http://www.w3.org/2000/svg"
 width="3464.000000pt" height="3464.000000pt" viewBox="0 0 3464.000000 3464.000000"
 preserveAspectRatio="xMidYMid meet">

<g transform="translate(0.000000,3464.000000) scale(0.100000,-0.100000)"
fill="#000000" stroke="none">
<path d="M6716 24313 c-24 -50 -6412 -13912 -6442 -13981 l-24 -52 1172 2
1172 3 467 1040 c405 900 470 1040 491 1045 12 3 1483 3 3266 0 l3244 -5 467
-1040 467 -1040 1172 -3 1172 -2 -24 52 c-22 50 -6217 13495 -6381 13851 l-78
167 -61 0 c-62 0 -62 0 -80 -37z m1295 -7391 l1206 -2687 -1208 -3 c-664 -1
-1754 -1 -2422 0 l-1214 3 1211 2687 c666 1478 1213 2688 1216 2687 3 0 548
-1209 1211 -2687z"/>
<path d="M14900 17175 l0 -6895 2763 3 c2513 3 2775 4 2905 20 570 67 1026
194 1480 412 197 95 302 155 492 280 767 506 1339 1263 1637 2165 270 819 279
1707 24 2480 -141 424 -324 765 -605 1120 -119 151 -400 433 -551 554 -496
395 -1070 644 -1641 711 -71 8 -153 15 -182 15 -60 0 -62 14 -4 24 94 15 267
106 414 218 186 141 419 407 564 644 235 383 376 798 430 1264 29 250 10 658
-42 925 -63 320 -163 610 -313 900 -97 190 -180 322 -303 487 -607 810 -1532
1348 -2593 1508 -373 56 -255 53 -2447 57 l-2028 4 0 -6896z m4190 4763 c428
-77 771 -256 1056 -550 430 -444 576 -1062 393 -1663 -75 -243 -214 -472 -403
-660 -67 -66 -158 -147 -204 -179 -181 -128 -397 -227 -623 -286 -253 -66
-281 -67 -1501 -74 l-758 -5 0 1720 0 1720 978 -4 c820 -4 991 -7 1062 -19z
m1150 -5338 c618 -77 1110 -299 1481 -669 168 -168 279 -324 379 -533 247
-518 231 -1166 -43 -1713 -102 -205 -218 -367 -386 -538 -381 -389 -846 -625
-1426 -724 l-160 -27 -1517 -3 -1518 -4 0 2116 0 2115 1513 0 c1461 0 1519 -1
1677 -20z"/>
<path d="M24353 24063 c-10 -4 -13 -228 -13 -1074 l0 -1069 1848 -2 1847 -3 3
-5817 2 -5818 1085 0 1085 0 0 5820 0 5820 1845 0 1845 0 0 1075 0 1075 -4767
-1 c-2623 0 -4774 -3 -4780 -6z"/>
</g>
</svg>
